<?xml version="1.0" encoding="utf-8"?>
<!-- Generator: Adobe Illustrator 16.0.0, SVG Export Plug-In . SVG Version: 6.00 Build 0)  -->
<!DOCTYPE svg PUBLIC "-//W3C//DTD SVG 1.1//EN" "http://www.w3.org/Graphics/SVG/1.1/DTD/svg11.dtd">
<svg version="1.1" xmlns="http://www.w3.org/2000/svg" xmlns:xlink="http://www.w3.org/1999/xlink" x="0px" y="0px"
	 width="597.671px" height="595.281px" viewBox="0 0 597.671 595.281" enable-background="new 0 0 597.671 595.281"
	 xml:space="preserve">
<g id="Camada_1" display="none">
	<g display="inline">
		<path d="M136.149,352.429l-20.158,72.651H49.639l86.51-283.048h83.99l87.771,283.048h-68.872L217.2,352.429H136.149z
			 M207.961,304.554l-17.638-60.053c-5.04-16.798-10.079-37.795-14.278-54.594h-0.84c-4.2,16.798-8.399,38.216-13.019,54.594
			l-16.798,60.053H207.961z"/>
		<path d="M463.708,201.666v91.549h87.77v39.476h-87.77v92.39h-41.155v-92.39h-87.771v-39.476h87.771v-91.549H463.708z"/>
	</g>
</g>
<g id="Camada_3">
	<g>
		<ellipse cx="297.758" cy="87.628" rx="45.883" ry="50.981"/>
		<polyline points="78.539,157.728 78.539,203.612 223.835,203.612 223.835,546.461 270.993,546.461 270.993,396.067 
			324.523,396.067 324.523,546.461 371.683,546.461 371.683,206.162 508.056,206.162 508.056,146.257 78.539,146.257 		"/>
	</g>
</g>
<g id="Camada_2" display="none">
	<path display="inline" d="M233.307,510.824h-68.225c-11.396,0-20.666-9.27-20.666-20.666V336.273h-39.804
		c-11.396,0-20.666-9.273-20.666-20.666v-65.94c0-11.396,9.27-20.666,20.666-20.666h39.804V195.98
		c0-32.741,10.281-60.597,29.728-80.551c19.535-20.045,46.835-30.638,78.948-30.638l52.031,0.084
		c11.377,0.02,20.631,9.29,20.631,20.666v61.224c0,11.396-9.268,20.666-20.659,20.666l-35.032,0.013
		c-10.685,0-13.404,2.142-13.986,2.798c-0.959,1.089-2.1,4.167-2.1,12.667v26.087h48.485c3.649,0,7.187,0.9,10.226,2.597
		c6.556,3.663,10.632,10.59,10.632,18.075l-0.026,65.941c0,11.389-9.27,20.658-20.666,20.658h-48.65v153.889
		C253.977,501.554,244.704,510.824,233.307,510.824z M169.392,485.849h59.605V325.091c0-7.609,6.192-13.797,13.798-13.797h55.522
		l0.022-57.317h-55.549c-7.605,0-13.794-6.189-13.794-13.798V202.91c0-9.757,0.991-20.854,8.356-29.195
		c8.899-10.083,22.925-11.246,32.702-11.246l30.722-0.013v-52.61l-47.705-0.078c-51.609,0-83.681,33.037-83.681,86.213v44.199
		c0,7.606-6.188,13.798-13.794,13.798h-46.675v57.317h46.675c7.606,0,13.794,6.188,13.794,13.797V485.849z M305.076,109.853h0.003
		H305.076z"/>
</g>
</svg>
