<svg xmlns="http://www.w3.org/2000/svg" xmlns:xlink="http://www.w3.org/1999/xlink" width="257" height="258" viewBox="0 0 257 258">
    <defs>
        <path id="a" d="M0 .509h256.491V257H.001z"/>
    </defs>
    <g fill="none" fill-rule="evenodd">
        <g transform="translate(0 .491)">
            <mask id="b" fill="#fff">
                <use xlink:href="#a"/>
            </mask>
            <path fill="#E1413E" d="M256.491 192.112c0 35.688-29.2 64.889-64.889 64.889H64.888C29.2 257 0 227.8 0 192.11V65.399C0 29.708 29.2.508 64.888.508h126.714c35.69 0 64.89 29.2 64.89 64.89v126.714z" mask="url(#b)"/>
        </g>
        <path fill="#FFF" d="M95.806 145.938c-9.247-5.406-15.41-6.64-22.017-6.64-3.668 0-7.777.924-8.366 4.632-.44 3.242 2.496 4.015 8.66 5.41 11.302 2.468 22.75 5.714 24.216 17.918l6.168-31.979-8.661 10.66zm85.135.927L197.817 124h25.1l-35.52 44.031-5.283 27.5h-21.428l6.016-30.744-11.007-19.93-14.383 16.531 19.374 34.142h-25.832l-15.123-28.426-5.14 28.426H92.87l3.082-16.375c-5.872 14.058-16.877 18.695-31.847 18.695-12.623 0-24.22-4.019-30.53-11.28l11.888-14.678c5.137 5.254 13.063 8.034 21.429 8.034 5.87 0 9.393-2.315 9.539-5.408.147-5.25-8.512-6.024-16.438-8.339-8.953-2.628-18.493-8.96-15.998-22.249 1.909-10.198 10.567-22.093 32.583-22.093 12.33 0 21.429 2.934 28.915 8.497l1.17-6.334h21.729l-6.315 31.054L147.622 124H169.2l11.74 22.865zM84.233 102.686l4.096-21.184-.192-.064-5.697 9.024-4.16 6.272h-7.424l-1.791-6.592-2.112-8.704-.257.192-4.096 21.056h-9.599l8.64-44.544h8.703l3.393 12.928 3.008 13.376H77l8.063-13.376 8.32-12.928h9.088l-8.638 44.544zM106.824 66.142l1.536-8h8.96l-1.536 8h-8.96zm-7.104 36.544l6.144-31.68h8.96l-6.144 31.68h-8.96zM132.424 102.686l3.647-18.752c.342-1.62.15-2.837-.575-3.648-.726-.81-1.707-1.216-2.944-1.216a5.522 5.522 0 0 0-3.521 1.216c-1.023.811-1.707 2.027-2.047 3.648l-3.648 18.752h-8.96l6.208-31.744h8.96l-.448 2.368h.128c.98-.725 2.133-1.354 3.456-1.888 1.322-.533 2.58-.8 3.776-.8 1.577 0 3.008.246 4.287.736 1.28.491 2.326 1.216 3.137 2.176.81.96 1.365 2.155 1.664 3.584.298 1.43.256 3.062-.128 4.896l-4.032 20.672h-8.96zM165.064 102.75l3.647-18.752c.64-3.242-.534-4.864-3.52-4.864a5.522 5.522 0 0 0-3.52 1.216c-1.023.811-1.707 2.027-2.047 3.648l-3.648 18.752h-8.96l9.216-46.592h8.96l-3.457 17.088.256.064c.981-.725 2.112-1.344 3.391-1.856 1.281-.512 2.518-.768 3.713-.768 1.578 0 3.008.246 4.287.736 1.281.491 2.326 1.216 3.137 2.176.81.96 1.365 2.155 1.665 3.584.298 1.43.256 3.062-.129 4.896l-3.904 20.672h-9.088zM190.28 90.974c0 .982.255 1.846.767 2.592.511.747 1.45 1.12 2.816 1.12 1.193 0 2.208-.416 3.04-1.248.832-.832 1.504-1.834 2.016-3.008a15.681 15.681 0 0 0 1.088-3.648c.212-1.258.32-2.314.32-3.168 0-.597-.043-1.173-.128-1.728-.086-.554-.246-1.034-.48-1.44a2.482 2.482 0 0 0-1.024-.96c-.448-.234-1.035-.352-1.76-.352-1.28 0-2.347.427-3.2 1.28-.854.854-1.536 1.9-2.049 3.136a17.146 17.146 0 0 0-1.088 3.872c-.214 1.344-.319 2.528-.319 3.552m5.76-20.288c.98 0 2.07.192 3.263.576 1.195.384 2.218 1.067 3.073 2.048l.128-.064.448-2.24h8.96l-6.145 31.68h-8.96l.513-2.496-.192-.064a8.78 8.78 0 0 1-1.409 1.12c-.554.363-1.15.672-1.792.928-.639.256-1.28.47-1.919.64-.64.17-1.216.256-1.728.256-1.92 0-3.488-.288-4.704-.864-1.216-.576-2.155-1.344-2.817-2.304-.662-.96-1.109-2.048-1.343-3.264a19.607 19.607 0 0 1-.353-3.744c0-2.432.245-4.949.737-7.552.49-2.602 1.322-4.992 2.496-7.168 1.172-2.176 2.72-3.968 4.64-5.376 1.92-1.408 4.287-2.112 7.104-2.112"/>
    </g>
</svg>