<?xml version="1.0" encoding="utf-8"?>
<!-- Generator: Adobe Illustrator 16.0.0, SVG Export Plug-In . SVG Version: 6.00 Build 0)  -->
<!DOCTYPE svg PUBLIC "-//W3C//DTD SVG 1.1//EN" "http://www.w3.org/Graphics/SVG/1.1/DTD/svg11.dtd">
<svg version="1.1" xmlns="http://www.w3.org/2000/svg" xmlns:xlink="http://www.w3.org/1999/xlink" x="0px" y="0px" width="425.2px"
	 height="442px" viewBox="0 75.14 425.2 442" enable-background="new 0 75.14 425.2 442" xml:space="preserve">
<g id="Capa_1" display="none">
	<g display="inline">
		<g>
			<path d="M212.6,85.04C95.378,85.04,0,180.418,0,297.64c0,117.223,95.378,212.6,212.6,212.6c117.223,0,212.6-95.377,212.6-212.6
				C425.2,180.418,329.823,85.04,212.6,85.04z M212.6,483.666c-102.58,0-186.025-83.445-186.025-186.025
				c0-102.58,83.445-186.025,186.025-186.025c102.58,0,186.025,83.445,186.025,186.025C398.625,400.22,315.18,483.666,212.6,483.666
				z"/>
		</g>
	</g>
	<g display="inline">
		<g>
			<path d="M212.6,138.19v318.899c93.012,0,159.449-71.393,159.449-159.449C372.049,209.57,305.612,138.19,212.6,138.19z"/>
		</g>
	</g>
</g>
<g id="Camada_2" display="none">
	<g id="Camada_3" display="inline">
		<g>
			<ellipse cx="217.082" cy="121.831" rx="44.066" ry="43.691"/>
			<polyline points="6.539,181.907 6.539,221.23 146.084,221.23 146.084,515.054 191.375,515.054 191.375,386.166 242.787,386.166 
				242.787,515.054 288.081,515.054 288.081,223.416 419.056,223.416 419.056,172.077 6.539,172.077 			"/>
		</g>
	</g>
</g>
<g id="Camada_3_1_">
	<g id="Camada_1_1_">
		<g>
			<path fill="#666666" d="M96.98,414.753l-21.773,89.91H3.539l93.441-350.29H187.7l94.805,350.29h-74.392l-23.588-89.91H96.98z
				 M174.546,355.506l-19.052-74.321c-5.442-20.789-10.885-46.773-15.421-67.563h-0.907c-4.538,20.789-9.072,47.294-14.063,67.563
				l-18.143,74.321H174.546z"/>
			<path fill="#666666" d="M422.208,341.992v52.492H303.366v-52.492H422.208z"/>
		</g>
	</g>
</g>
<g id="Camada_4" display="none">
	<g display="inline">
		<path d="M91.218,414.825l-19.032,89.839H9.539l81.679-350.016h79.301l82.87,350.016h-65.026l-20.619-89.839H91.218z
			 M159.02,355.622l-16.652-74.261c-4.759-20.772-9.517-46.737-13.481-67.51h-0.792c-3.965,20.772-7.93,47.257-12.292,67.51
			l-15.86,74.261H159.02z"/>
		<path d="M364.609,228.391V341.6h82.869v48.816h-82.869v114.248h-38.857V390.417h-82.869V341.6h82.869V228.391H364.609
			L364.609,228.391z"/>
	</g>
</g>
</svg>
