<?xml version="1.0" encoding="utf-8"?>
<!-- Generator: Adobe Illustrator 16.0.0, SVG Export Plug-In . SVG Version: 6.00 Build 0)  -->
<!DOCTYPE svg PUBLIC "-//W3C//DTD SVG 1.1//EN" "http://www.w3.org/Graphics/SVG/1.1/DTD/svg11.dtd">
<svg version="1.1" xmlns="http://www.w3.org/2000/svg" xmlns:xlink="http://www.w3.org/1999/xlink" x="0px" y="0px" width="425.2px"
	 height="595.281px" viewBox="0 0 425.2 595.281" enable-background="new 0 0 425.2 595.281" xml:space="preserve">
<g id="Camada_1" display="none">
	<path display="inline" fill="#666666" d="M425.2,123.549c-26.746,1.232-26.162,1.132-29.186,1.385l15.84-45.238
		c0,0-49.445,18.189-61.98,21.443c-32.92-29.589-81.853-30.896-116.836-9.395c-28.648,17.611-44.025,47.855-38.896,83.206
		c-55.755-7.737-102.731-34.166-139.82-78.719l-11.73-14.089l-8.766,16.097c-11.078,20.34-14.757,43.597-10.361,65.484
		c1.804,8.979,4.87,17.543,9.116,25.563l-10.063-3.899L21.323,202.2c-1.21,17.08,4.477,37.018,15.215,53.329
		c3.023,4.594,6.916,9.638,11.85,14.614l-5.2-0.798l6.345,19.266c8.341,25.313,25.664,44.898,48.145,55.785
		c-22.452,9.527-40.589,15.606-70.401,25.413L0,378.776l25.193,13.774c9.606,5.252,43.548,22.792,77.084,28.054
		c74.548,11.692,158.48,2.171,214.985-48.719c47.592-42.863,63.209-103.834,59.965-167.284c-0.49-9.605,2.141-18.773,7.41-25.81
		C395.19,164.703,425.135,123.644,425.2,123.549z M364.715,163.869c-8.75,11.682-13.131,26.601-12.346,42.003
		c3.271,64.001-14.143,113.635-51.762,147.516c-43.947,39.58-114.833,55.115-194.473,42.623
		c-14.423-2.262-29.33-7.325-41.667-12.383c24.995-8.6,44.297-16.266,75.469-31.02l43.515-20.596l-48.044-3.075
		c-23.013-1.474-42.176-12.626-53.955-30.733c6.254-0.364,12.285-1.376,18.29-3.05l45.822-12.762l-46.205-11.315
		c-22.452-5.499-35.25-18.932-42.033-29.235c-4.454-6.77-7.364-13.706-9.109-20.1c4.632,1.243,10.034,2.128,18.744,2.991
		l42.766,4.23l-33.884-26.433c-24.415-19.042-34.199-47.651-27.026-75.154c76.195,79.031,165.66,73.091,174.665,75.18
		c-1.982-19.253-2.034-19.298-2.554-21.131c-11.532-40.768,13.742-61.468,25.142-68.475c23.812-14.634,61.606-16.84,87.786,7.27
		c5.654,5.204,13.301,7.25,20.457,5.473c6.424-1.596,11.695-3.286,16.855-5.125l-10.744,30.682l13.717,0.01
		C371.553,154.73,368.45,158.886,364.715,163.869z"/>
</g>
<g id="Camada_2">
	<path fill="#666666" d="M228.361,429.14h-68.225c-11.396,0-20.666-7.971-20.666-17.771V279.042H99.666
		C88.27,279.042,79,271.068,79,261.272V204.57c0-9.8,9.27-17.771,20.666-17.771h39.804v-28.395
		c0-28.154,10.281-52.107,29.728-69.266c19.535-17.237,46.834-26.346,78.948-26.346l52.031,0.073
		c11.377,0.017,20.631,7.988,20.631,17.771v52.647c0,9.799-9.268,17.771-20.659,17.771l-35.033,0.011
		c-10.684,0-13.404,1.841-13.986,2.406c-0.959,0.937-2.1,3.583-2.1,10.892v22.433h48.486c3.649,0,7.187,0.774,10.226,2.233
		c6.556,3.149,10.632,9.106,10.632,15.542l-0.026,56.704c0,9.793-9.27,17.764-20.666,17.764H249.03V411.37
		C249.03,421.169,239.756,429.14,228.361,429.14z M164.446,407.664h59.605V269.427c0-6.543,6.191-11.864,13.798-11.864h55.522
		l0.023-49.288h-55.549c-7.606,0-13.795-5.321-13.795-11.864v-32.048c0-8.391,0.991-17.933,8.356-25.105
		c8.899-8.67,22.925-9.67,32.702-9.67l30.722-0.011v-45.24l-47.705-0.067c-51.609,0-83.681,28.409-83.681,74.135v38.007
		c0,6.54-6.188,11.864-13.794,11.864h-46.675v49.288h46.675c7.606,0,13.794,5.32,13.794,11.864V407.664z M300.129,84.342h0.003
		H300.129z"/>
</g>
</svg>
