<?xml version="1.0" encoding="utf-8"?>
<!-- Generator: Adobe Illustrator 16.0.0, SVG Export Plug-In . SVG Version: 6.00 Build 0)  -->
<!DOCTYPE svg PUBLIC "-//W3C//DTD SVG 1.1//EN" "http://www.w3.org/Graphics/SVG/1.1/DTD/svg11.dtd">
<svg version="1.1" id="Capa_1" xmlns="http://www.w3.org/2000/svg" xmlns:xlink="http://www.w3.org/1999/xlink" x="0px" y="0px"
	 width="425.2px" height="595.281px" viewBox="0 0 425.2 595.281" enable-background="new 0 0 425.2 595.281" xml:space="preserve">
<g>
	<g>
		<path fill="#666666" d="M368.612,248.576L117.479,93.771c-18.169-11.186-40.136-11.65-58.763-1.244
			c-18.626,10.405-29.747,29.357-29.747,50.693v308.197c0,32.262,25.994,58.648,57.942,58.822c0.087,0,0.174,0,0.26,0
			c9.984,0,20.388-3.129,30.105-9.06c7.817-4.77,10.288-14.973,5.519-22.789c-4.769-7.817-14.974-10.289-22.789-5.52
			c-4.545,2.772-8.984,4.207-12.917,4.207c-12.054-0.066-24.96-10.394-24.96-25.66V143.221c0-9.153,4.77-17.28,12.759-21.744
			c7.99-4.464,17.412-4.265,25.195,0.528l251.134,154.804c7.549,4.647,11.867,12.396,11.852,21.261
			c-0.021,8.864-4.369,16.596-11.959,21.227L105.583,469.341c-7.81,4.781-10.265,14.988-5.483,22.799
			c4.781,7.81,14.988,10.265,22.798,5.482l245.505-150.031c17.383-10.604,27.783-29.091,27.828-49.455
			C396.272,277.775,385.944,259.246,368.612,248.576z"/>
	</g>
</g>
</svg>
