<?xml version="1.0" encoding="utf-8"?>
<!-- Generator: Adobe Illustrator 16.0.0, SVG Export Plug-In . SVG Version: 6.00 Build 0)  -->
<!DOCTYPE svg PUBLIC "-//W3C//DTD SVG 1.1//EN" "http://www.w3.org/Graphics/SVG/1.1/DTD/svg11.dtd">
<svg version="1.1" id="Capa_1" xmlns="http://www.w3.org/2000/svg" xmlns:xlink="http://www.w3.org/1999/xlink" x="0px" y="0px"
	 width="425.2px" height="595.281px" viewBox="0 0 425.2 595.281" enable-background="new 0 0 425.2 595.281" xml:space="preserve">
<g>
	<g>
		<path fill="#666666" d="M422.604,482.593L299.088,359.076c23.426-28.923,37.529-65.693,37.529-105.727
			c0-92.805-75.504-168.309-168.31-168.309C75.503,85.04,0,160.544,0,253.349c0,92.805,75.504,168.309,168.309,168.309
			c40.034,0,76.804-14.103,105.727-37.529l123.518,123.518c3.461,3.459,9.068,3.459,12.527,0l12.525-12.525
			C426.065,491.662,426.065,486.052,422.604,482.593z M168.309,386.224c-73.271,0-132.875-59.604-132.875-132.875
			s59.604-132.875,132.875-132.875s132.875,59.604,132.875,132.875S241.581,386.224,168.309,386.224z"/>
	</g>
</g>
</svg>
