<?xml version="1.0" encoding="utf-8"?>
<!-- Generator: Adobe Illustrator 16.0.0, SVG Export Plug-In . SVG Version: 6.00 Build 0)  -->
<!DOCTYPE svg PUBLIC "-//W3C//DTD SVG 1.1//EN" "http://www.w3.org/Graphics/SVG/1.1/DTD/svg11.dtd">
<svg version="1.1" id="Capa_1" xmlns="http://www.w3.org/2000/svg" xmlns:xlink="http://www.w3.org/1999/xlink" x="0px" y="0px"
	 width="512px" height="512px" viewBox="0 0 512 512" enable-background="new 0 0 512 512" xml:space="preserve">
<path fill="#666666" d="M256,256c-70.578,0-128-57.421-128-128S185.422,0,256,0s128,57.421,128,128S326.578,256,256,256z M256,32
	c-52.937,0-96,43.062-96,96s43.062,96,96,96c52.938,0,96-43.063,96-96S308.938,32,256,32z"/>
<path fill="#666666" d="M463.999,512H48c-8.844,0-16-7.156-16-16V385.859c0-16.531,8.453-32.063,22.047-40.563
	c120.156-74.954,283.86-74.938,403.891-0.016c13.609,8.515,22.063,24.047,22.063,40.577v110.141
	C480.001,504.844,472.845,512,463.999,512z M64,480.001h384v-94.142c0-5.578-2.688-10.734-7.016-13.438
	C331.125,303.844,180.953,303.797,71,372.438c-4.312,2.688-7,7.844-7,13.423L64,480.001z"/>
</svg>
