<?xml version="1.0" encoding="utf-8"?>
<!-- Generator: Adobe Illustrator 16.0.0, SVG Export Plug-In . SVG Version: 6.00 Build 0)  -->
<!DOCTYPE svg PUBLIC "-//W3C//DTD SVG 1.1//EN" "http://www.w3.org/Graphics/SVG/1.1/DTD/svg11.dtd">
<svg version="1.1" xmlns="http://www.w3.org/2000/svg" xmlns:xlink="http://www.w3.org/1999/xlink" x="0px" y="0px" width="425.2px"
	 height="595.281px" viewBox="0 0 425.2 595.281" enable-background="new 0 0 425.2 595.281" xml:space="preserve">
<g id="Camada_1" display="none">
	<path display="inline" fill="#666666" d="M425.2,123.549c-26.746,1.232-26.162,1.132-29.186,1.385l15.84-45.238
		c0,0-49.445,18.189-61.98,21.443c-32.92-29.589-81.853-30.896-116.836-9.395c-28.648,17.611-44.025,47.855-38.896,83.206
		c-55.755-7.737-102.731-34.166-139.82-78.719l-11.73-14.089l-8.766,16.097c-11.078,20.34-14.757,43.597-10.361,65.484
		c1.804,8.979,4.87,17.543,9.116,25.563l-10.063-3.899L21.323,202.2c-1.21,17.08,4.477,37.018,15.215,53.329
		c3.023,4.594,6.916,9.638,11.85,14.614l-5.2-0.798l6.345,19.266c8.341,25.313,25.664,44.898,48.145,55.785
		c-22.452,9.527-40.589,15.606-70.401,25.413L0,378.776l25.193,13.774c9.606,5.252,43.548,22.792,77.084,28.054
		c74.548,11.692,158.48,2.171,214.985-48.719c47.592-42.863,63.209-103.834,59.965-167.284c-0.49-9.605,2.141-18.773,7.41-25.81
		C395.19,164.703,425.135,123.644,425.2,123.549z M364.715,163.869c-8.75,11.682-13.131,26.601-12.346,42.003
		c3.271,64.001-14.143,113.635-51.762,147.516c-43.947,39.58-114.833,55.115-194.473,42.623
		c-14.423-2.262-29.33-7.325-41.667-12.383c24.995-8.6,44.297-16.266,75.469-31.02l43.515-20.596l-48.044-3.075
		c-23.013-1.474-42.176-12.626-53.955-30.733c6.254-0.364,12.285-1.376,18.29-3.05l45.822-12.762l-46.205-11.315
		c-22.452-5.499-35.25-18.932-42.033-29.235c-4.454-6.77-7.364-13.706-9.109-20.1c4.632,1.243,10.034,2.128,18.744,2.991
		l42.766,4.23l-33.884-26.433c-24.415-19.042-34.199-47.651-27.026-75.154c76.195,79.031,165.66,73.091,174.665,75.18
		c-1.982-19.253-2.034-19.298-2.554-21.131c-11.532-40.768,13.742-61.468,25.142-68.475c23.812-14.634,61.606-16.84,87.786,7.27
		c5.654,5.204,13.301,7.25,20.457,5.473c6.424-1.596,11.695-3.286,16.855-5.125l-10.744,30.682l13.717,0.01
		C371.553,154.73,368.45,158.886,364.715,163.869z"/>
</g>
<g id="Camada_2" display="none">
	<path display="inline" fill="#666666" d="M228.361,429.14h-68.225c-11.396,0-20.666-7.971-20.666-17.771V279.042H99.666
		C88.27,279.042,79,271.068,79,261.272V204.57c0-9.8,9.27-17.771,20.666-17.771h39.804v-28.395
		c0-28.154,10.281-52.107,29.728-69.266c19.535-17.237,46.834-26.346,78.948-26.346l52.031,0.073
		c11.377,0.017,20.631,7.988,20.631,17.771v52.647c0,9.799-9.268,17.771-20.659,17.771l-35.033,0.011
		c-10.684,0-13.404,1.841-13.986,2.406c-0.959,0.937-2.1,3.583-2.1,10.892v22.433h48.486c3.649,0,7.187,0.774,10.226,2.233
		c6.556,3.149,10.632,9.106,10.632,15.542l-0.026,56.704c0,9.793-9.27,17.764-20.666,17.764H249.03V411.37
		C249.03,421.169,239.756,429.14,228.361,429.14z M164.446,407.664h59.605V269.427c0-6.543,6.191-11.864,13.798-11.864h55.522
		l0.023-49.288h-55.549c-7.606,0-13.795-5.321-13.795-11.864v-32.048c0-8.391,0.991-17.933,8.356-25.105
		c8.899-8.67,22.925-9.67,32.702-9.67l30.722-0.011v-45.24l-47.705-0.067c-51.609,0-83.681,28.409-83.681,74.135v38.007
		c0,6.54-6.188,11.864-13.794,11.864h-46.675v49.288h46.675c7.606,0,13.794,5.32,13.794,11.864V407.664z M300.129,84.342h0.003
		H300.129z"/>
</g>
<g id="Camada_3">
	<g>
		<path fill="#666666" d="M278.047,222.404l-93.937-61.302c-5.401-3.524-11.786-3.393-17.08,0.349
			c-5.297,3.745-8.457,10.361-8.457,17.705v121.549c0,7.309,3.14,13.914,8.402,17.662c2.748,1.959,5.794,2.941,8.846,2.941
			c2.796,0,5.599-0.824,8.178-2.48l93.94-60.245c5.576-3.58,9.057-10.493,9.084-18.049
			C287.045,232.978,283.608,226.032,278.047,222.404z M183.491,285.415v-90.845l70.207,45.818L183.491,285.415z"/>
		<path fill="#666666" d="M422.071,143.695l-0.02-0.232c-0.359-4.082-3.943-40.389-18.744-58.856
			c-17.105-21.721-36.498-24.359-45.824-25.625c-0.771-0.104-1.479-0.201-2.111-0.302l-0.744-0.093
			c-56.211-4.875-141.104-5.541-141.953-5.544l-0.075-0.004l-0.075,0.004c-0.85,0.003-85.742,0.669-142.46,5.544l-0.749,0.093
			c-0.604,0.097-1.269,0.186-1.992,0.286c-9.219,1.269-28.404,3.912-45.559,26.417c-14.095,18.27-18.17,53.8-18.588,57.792
			l-0.048,0.518C3,145.394,0,185.829,0,226.423v37.947c0,40.595,3,81.029,3.127,82.732l0.022,0.256
			c0.36,4.017,3.941,39.657,18.672,58.132c16.084,20.993,36.42,23.771,47.359,25.265c1.729,0.235,3.218,0.438,4.233,0.65
			l0.983,0.163c32.457,3.683,134.218,5.497,138.532,5.572l0.13,0.002l0.13-0.002c0.85-0.005,85.738-0.671,141.951-5.547l0.742-0.091
			c0.711-0.114,1.51-0.214,2.385-0.321c9.168-1.162,28.248-3.571,45.166-25.773c14.096-18.271,18.174-53.803,18.588-57.791
			l0.049-0.52c0.127-1.7,3.131-42.132,3.131-82.727v-37.947C425.198,185.829,422.198,145.397,422.071,143.695z M400.282,264.37
			c0,37.573-2.752,76.267-3.012,79.818c-1.057,9.786-5.355,32.265-12.223,41.168c-10.588,13.893-21.465,15.27-29.406,16.273
			c-0.961,0.119-1.85,0.235-2.654,0.354c-54.369,4.689-136.057,5.409-139.82,5.437c-4.221-0.074-104.492-1.903-135.959-5.39
			c-1.612-0.313-3.354-0.553-5.19-0.8c-9.313-1.273-22.063-3.014-31.866-15.875l-0.23-0.296
			c-6.748-8.384-10.923-29.404-11.983-40.756c-0.198-2.684-3.021-41.835-3.021-79.934v-37.947c0-37.53,2.745-76.182,3.011-79.807
			c1.262-11.526,5.641-32.643,12.223-41.178c10.913-14.315,22.419-15.902,30.03-16.95c0.727-0.101,1.405-0.193,2.031-0.291
			c55.161-4.712,137.436-5.413,140.388-5.439c2.952,0.023,85.198,0.727,139.868,5.439c0.672,0.101,1.404,0.201,2.193,0.31
			c7.828,1.064,19.658,2.674,30.516,16.486l0.102,0.127c6.748,8.384,10.922,29.772,11.982,41.352
			c0.189,2.535,3.021,41.771,3.021,79.95V264.37z"/>
	</g>
</g>
<g id="Camada_4" display="none">
	<g display="inline">
		<path fill="#666666" d="M310.102,55.04H115.098C51.632,55.04,0,101.074,0,157.659v173.865C0,388.106,51.632,434.14,115.098,434.14
			h195.008c63.461,0,115.094-46.034,115.094-102.616V157.659C425.2,101.074,373.567,55.04,310.102,55.04z M400.272,331.524
			c0,44.328-40.449,80.391-90.17,80.391H115.098c-49.721,0-90.171-36.063-90.171-80.391V157.659
			c0-44.331,40.45-80.395,90.171-80.395h195.008c49.717,0,90.166,36.064,90.166,80.395V331.524z"/>
		<path fill="#666666" d="M212.6,140.933c-64.108,0-116.262,46.5-116.262,103.657c0,57.158,52.154,103.657,116.262,103.657
			s116.262-46.499,116.262-103.657C328.862,187.433,276.708,140.933,212.6,140.933z M212.6,326.023
			c-50.36,0-91.335-36.53-91.335-81.433c0-44.9,40.975-81.433,91.335-81.433c50.364,0,91.334,36.533,91.334,81.433
			C303.934,289.493,262.963,326.023,212.6,326.023z"/>
		<path fill="#666666" d="M331.641,104.12c-18.943,0-34.354,13.741-34.354,30.629c0,16.891,15.41,30.633,34.354,30.633
			c18.945,0,34.357-13.742,34.357-30.633C365.999,117.858,350.586,104.12,331.641,104.12z M331.641,143.154
			c-5.195,0-9.426-3.772-9.426-8.405c0-4.636,4.23-8.405,9.426-8.405c5.201,0,9.432,3.769,9.432,8.405
			C341.073,139.382,336.842,143.154,331.641,143.154z"/>
	</g>
</g>
</svg>
